Coordinates
version=1
nRows=24
nColumns=24
inDegrees=yes

Units are S.I. units (second, meters, Newtons, ...)
Angles are in degrees.

endheader
time	pelvis_tilt	pelvis_list	pelvis_rotation	pelvis_tx	pelvis_ty	pelvis_tz	hip_flexion_r	hip_adduction_r	hip_rotation_r	knee_angle_r	ankle_angle_r	subtalar_angle_r	mtp_angle_r	hip_flexion_l	hip_adduction_l	hip_rotation_l	knee_angle_l	ankle_angle_l	subtalar_angle_l	mtp_angle_l	lumbar_extension	lumbar_bending	lumbar_rotation
      1.37466667	     -0.77099953	      1.51888974	     -5.30182556	      0.45371029	      1.08099495	      0.31900497	     11.55289687	     -6.20091345	     -6.01391910	    -65.17321944	      2.29649570	     -1.15915790	      7.23594825	     10.33604271	      3.74119633	     -0.09158202	    -17.56911593	      8.84264231	      1.49119729	      1.89987176	    -13.16888813	     -3.88712831	      0.00929888
      1.37883333	     -0.75224115	      1.40017500	     -5.19639413	      0.45874243	      1.08200979	      0.31874303	     12.00951349	     -6.03082003	     -6.09512213	    -64.82669810	      2.65932451	     -0.87532298	      7.32679671	      9.79267402	      3.66520536	      0.05113838	    -17.11592665	      8.84888599	      1.49647442	      1.87437251	    -13.16625824	     -3.73566023	     -0.15894891
      1.38300000	     -0.74045053	      1.26128801	     -5.08358676	      0.46376619	      1.08300179	      0.31847327	     12.45872869	     -5.83386244	     -6.18132745	    -64.42705464	      3.00305274	     -0.58423079	      7.38252247	      9.26583472	      3.56149685	      0.17314101	    -16.68466235	      8.88641825	      1.56022744	      1.86255064	    -13.16338511	     -3.56269607	     -0.23401703
      1.38716667	     -0.73544042	      1.10384806	     -4.96274205	      0.46877625	      1.08393572	      0.31819896	     12.90139987	     -5.61067917	     -6.27202129	    -63.98114671	      3.34148179	     -0.35650770	      7.41669149	      8.75461380	      3.43190439	      0.27310913	    -16.26791063	      8.89394636	      1.64543835	      1.85668793	    -13.15379739	     -3.35637744	     -0.28887766
      1.39133333	     -0.70544894	      1.00136659	     -4.84194597	      0.47376869	      1.08483857	      0.31792821	     13.32449668	     -5.46155160	     -6.36740410	    -63.52726529	      3.71065790	     -0.03925219	      7.49673317	      8.20139173	      3.37166456	      0.44167009	    -15.80492218	      8.89569095	      1.63411221	      1.84023907	    -13.17674277	     -3.23154996	     -0.48489581
      1.39550000	     -0.70760538	      0.86796586	     -4.71084314	      0.47876816	      1.08564798	      0.31763058	     13.76530372	     -5.27377964	     -6.47341258	    -63.02422120	      4.03710522	      0.22943665	      7.55038926	      7.69787842	      3.26931756	      0.57941903	    -15.37988126	      8.93586726	      1.68859049	      1.83171826	    -13.15935618	     -3.04799239	     -0.57443529
      1.39966667	     -0.70679087	      0.72970439	     -4.57716421	      0.48375012	      1.08643258	      0.31734696	     14.19206794	     -5.07608104	     -6.57596645	    -62.47913635	      4.36567359	      0.46685912	      7.59469334	      7.19438151	      3.15791802	      0.71175620	    -14.95596447	      8.95230855	      1.74604579	      1.82483927	    -13.15030761	     -2.87338977	     -0.67282344
      1.40383333	     -0.71247023	      0.61385131	     -4.44163418	      0.48873492	      1.08712096	      0.31706152	     14.62509359	     -4.90943104	     -6.68746473	    -61.91879087	      4.69744234	      0.70165024	      7.63722772	      6.70035121	      3.06975993	      0.84601312	    -14.53328027	      8.97366671	      1.78430185	      1.81889227	    -13.12484609	     -2.71042365	     -0.78941572
      1.40800000	     -0.71013552	      0.50583473	     -4.30299185	      0.49371967	      1.08778688	      0.31677041	     15.04005108	     -4.75379045	     -6.80030645	    -61.32353138	      5.01456374	      0.90954756	      7.68527200	      6.19235222	      2.99134652	      1.00104059	    -14.09402738	      8.99130301	      1.79882031	      1.81154689	    -13.10654767	     -2.55490419	     -0.93359303
      1.41216667	     -0.71992132	      0.39099315	     -4.16293690	      0.49868563	      1.08837738	      0.31648977	     15.45987891	     -4.58632668	     -6.91065306	    -60.69519683	      5.31965535	      1.08556370	      7.72417273	      5.70883359	      2.89921684	      1.13874713	    -13.67696994	      9.01545800	      1.83425765	      1.80627800	    -13.07832133	     -2.39676274	     -1.04319067
      1.41633333	     -0.75051790	      0.28604859	     -4.02947617	      0.50365183	      1.08887521	      0.31623596	     15.90004231	     -4.42453851	     -7.01119404	    -60.04647995	      5.62499491	      1.18557644	      7.74335097	      5.25431359	      2.80946592	      1.23777732	    -13.26845155	      9.02894068	      1.91477958	      1.80431272	    -13.02272620	     -2.24335470	     -1.09579197
      1.42050000	     -0.76877634	      0.16855762	     -3.87685840	      0.50859761	      1.08935218	      0.31596012	     16.30613086	     -4.25412485	     -7.12568662	    -59.34889751	      5.92144298	      1.35269849	      7.76908002	      4.79342699	      2.70990938	      1.39468915	    -12.87648941	      9.07108059	      1.93287525	      1.80166720	    -12.99282659	     -2.09797776	     -1.23075039
      1.42466667	     -0.77379289	      0.07583817	     -3.73017795	      0.51353381	      1.08979289	      0.31568027	     16.69913077	     -4.11752603	     -7.23968102	    -58.63920227	      6.20718591	      1.46795838	      7.79573936	      4.30958590	      2.63888416	      1.56095771	    -12.45624331	      9.10596640	      1.92306016	      1.79827623	    -12.96847423	     -1.95201845	     -1.38996373
      1.42883333	     -0.81403382	     -0.01466009	     -3.58847329	      0.51846961	      1.09010672	      0.31543216	     17.12588156	     -3.97499459	     -7.33960585	    -57.90834792	      6.48619092	      1.52876053	      7.81921234	      3.87414845	      2.56291988	      1.71439162	    -12.05915406	      9.13689807	      1.92524718	      1.79560106	    -12.90637046	     -1.81615695	     -1.51757487
      1.43300000	     -0.86444567	     -0.09825157	     -3.45992490	      0.52339330	      1.09034364	      0.31522422	     17.56084339	     -3.83279251	     -7.41937297	    -57.15775470	      6.77434069	      1.53987948	      7.82771465	      3.46178413	      2.48527232	      1.80159662	    -11.68295979	      9.18182948	      2.00892416	      1.79601170	    -12.83194440	     -1.69813358	     -1.55177888
      1.43716667	     -0.89147487	     -0.20217640	     -3.30540066	      0.52828928	      1.09060080	      0.31497699	     17.94409561	     -3.67576255	     -7.52208669	    -56.35001752	      7.04160016	      1.57662280	      7.83505079	      3.03528024	      2.38862762	      1.94284960	    -11.32974694	      9.23892109	      2.03511173	      1.79631317	    -12.79286101	     -1.56176025	     -1.65312874
      1.44133333	     -0.92968496	     -0.26981772	     -3.17958250	      0.53318207	      1.09074325	      0.31478898	     18.35408212	     -3.55400329	     -7.59481761	    -55.55728184	      7.31548584	      1.55727005	      7.83855958	      2.61360285	      2.32652864	      2.04779480	    -10.95458988	      9.30560598	      2.09574833	      1.79772073	    -12.73690234	     -1.45261254	     -1.71781201
      1.44550000	     -0.97206957	     -0.36268925	     -3.02714282	      0.53805202	      1.09085917	      0.31456741	     18.73904723	     -3.40576003	     -7.68234715	    -54.70212023	      7.57040436	      1.53570105	      7.83782706	      2.21670531	      2.23747743	      2.19822841	    -10.62422327	      9.36855264	      2.09855343	      1.79896454	    -12.68409358	     -1.32652722	     -1.83267431
      1.44966667	     -1.02405125	     -0.42256139	     -2.88703643	      0.54291126	      1.09089357	      0.31436931	     19.14196144	     -3.29395576	     -7.75333112	    -53.84918528	      7.79740054	      1.47564411	      7.82457605	      1.81291087	      2.18622301	      2.39979419	    -10.25024863	      9.42465769	      2.02600772	      1.80062679	    -12.61458648	     -1.22257012	     -2.01726635
      1.45383333	     -1.08203929	     -0.49217429	     -2.75727192	      0.54775620	      1.09086358	      0.31420966	     19.53945698	     -3.16306766	     -7.80502639	    -52.96665317	      8.07169050	      1.40986344	      7.81810656	      1.44347270	      2.11339422	      2.49989287	     -9.93516257	      9.49880876	      2.07611331	      1.80332020	    -12.54485617	     -1.12852531	     -2.05095016
      1.45800000	     -1.12777128	     -0.55737156	     -2.62329217	      0.55257524	      1.09080400	      0.31405593	     19.91472944	     -3.03880930	     -7.85509365	    -52.05944664	      8.31515912	      1.32348164	      7.80655730	      1.06398300	      2.04460353	      2.62288446	     -9.62262296	      9.58679783	      2.10650056	      1.80666119	    -12.49380419	     -1.03754022	     -2.11533951
      1.46216667	     -1.16011059	     -0.61411338	     -2.49062569	      0.55738308	      1.09073480	      0.31390823	     20.26577516	     -2.92376428	     -7.89835624	    -51.12554820	      8.51469017	      1.19745262	      7.77639818	      0.66219837	      1.98720524	      2.78884630	     -9.29217859	      9.67233846	      2.07838712	      1.81162739	    -12.45962683	     -0.94825739	     -2.23379376
      1.46633333	     -1.23135632	     -0.65580999	     -2.36797877	      0.56217645	      1.09052236	      0.31380404	     20.65800321	     -2.81747631	     -7.91785684	    -50.18633724	      8.77986845	      1.09904141	      7.76081045	      0.32510304	      1.93783443	      2.89827926	     -9.00690611	      9.75869183	      2.11219032	      1.81555010	    -12.38474678	     -0.88872930	     -2.27245127
      1.47050000	     -1.29406083	     -0.70019867	     -2.24389761	      0.56696897	      1.09028739	      0.31370031	     21.02769529	     -2.70803159	     -7.93477644	    -49.21493203	      8.96636928	      0.94820144	      7.72332352	     -0.02934612	      1.88672672	      3.05065972	     -8.70546716	      9.86112508	      2.09412920	      1.82151806	    -12.31569667	     -0.81790469	     -2.36020484
